<?xml version="1.0" encoding="utf-8"?>
<svg version="1.1" xmlns:xlink="http://www.w3.org/1999/xlink" width="39px" height="33px" xmlns="http://www.w3.org/2000/svg">
  <g transform="matrix(1 0 0 1 -10 -10 )">
    <path d="M 17.109375 18.890625000000004  C 17.703124999999996 19.484374999999996  18 20.1875  18 21  L 18 30  C 18 30.812500000000004  17.703124999999996 31.515625  17.109375 32.109375  C 16.515625000000004 32.703125  15.812500000000002 33  15 33  L 3 33  C 2.1875000000000004 33  1.4843750000000002 32.703125  0.890625 32.109375  C 0.296875 31.515625  0 30.812500000000004  0 30  L 0 21  C 0 20.1875  0.296875 19.484374999999996  0.890625 18.890625000000004  C 1.4843750000000002 18.296875  2.1875000000000004 18  3 18  L 15 18  C 15.812500000000002 18  16.515625000000004 18.296875  17.109375 18.890625000000004  Z M 17.109375 0.8906249999999997  C 17.703124999999996 1.4843749999999982  18 2.1875  18 3.000000000000001  L 18 12  C 18 12.812499999999998  17.703124999999996 13.515625  17.109375 14.109375000000002  C 16.515625000000004 14.703125  15.812500000000002 15.000000000000002  15 15  L 3 15  C 2.1875000000000004 15.000000000000002  1.4843750000000002 14.703125  0.890625 14.109375000000002  C 0.296875 13.515625  0 12.812499999999998  0 12  L 0 3.000000000000001  C 0 2.1875  0.296875 1.4843749999999982  0.890625 0.8906249999999997  C 1.4843750000000002 0.29687499999999745  2.1875000000000004 0  3 0  L 15 0  C 15.812500000000002 0  16.515625000000004 0.29687499999999745  17.109375 0.8906249999999997  Z M 38.109375 18.890625000000004  C 38.703125 19.484374999999996  39 20.1875  39 21  L 39 30  C 39 30.812500000000004  38.703125 31.515625  38.109375 32.109375  C 37.515625 32.703125  36.8125 33  36 33  L 24 33  C 23.187500000000004 33  22.484375000000004 32.703125  21.890624999999996 32.109375  C 21.296875 31.515625  21 30.812500000000004  21 30  L 21 21  C 21 20.1875  21.296875 19.484374999999996  21.890624999999996 18.890625000000004  C 22.484375000000004 18.296875  23.187500000000004 18  24 18  L 36 18  C 36.8125 18  37.515625 18.296875  38.109375 18.890625000000004  Z M 38.109375 0.8906249999999997  C 38.703125 1.4843749999999982  39 2.1875  39 3.000000000000001  L 39 12  C 39 12.812499999999998  38.703125 13.515625  38.109375 14.109375000000002  C 37.515625 14.703125  36.8125 15.000000000000002  36 15  L 24 15  C 23.187500000000004 15.000000000000002  22.484375000000004 14.703125  21.890624999999996 14.109375000000002  C 21.296875 13.515625  21 12.812499999999998  21 12  L 21 3.000000000000001  C 21 2.1875  21.296875 1.4843749999999982  21.890624999999996 0.8906249999999997  C 22.484375000000004 0.29687499999999745  23.187500000000004 0  24 0  L 36 0  C 36.8125 0  37.515625 0.29687499999999745  38.109375 0.8906249999999997  Z " fill-rule="nonzero" fill="#ffffff" stroke="none" transform="matrix(1 0 0 1 10 10 )" />
  </g>
</svg>