<?xml version="1.0" encoding="utf-8"?>
<svg version="1.1" xmlns:xlink="http://www.w3.org/1999/xlink" width="35px" height="30px" xmlns="http://www.w3.org/2000/svg">
  <g transform="matrix(1 0 0 1 -30 -20 )">
    <path d="M 15.354567307692308 17.173295454545457  C 15.88741987179487 17.71306818181818  16.153846153846153 18.352272727272727  16.153846153846153 19.09090909090909  L 16.153846153846153 27.272727272727273  C 16.153846153846153 28.01136363636364  15.88741987179487 28.650568181818183  15.354567307692308 29.19034090909091  C 14.821714743589745 29.730113636363637  14.19070512820513 30  13.461538461538462 30  L 2.6923076923076925 30  C 1.963141025641026 30  1.3321314102564104 29.730113636363637  0.7992788461538461 29.19034090909091  C 0.26642628205128205 28.650568181818183  0 28.01136363636364  0 27.272727272727273  L 0 19.09090909090909  C 0 18.352272727272727  0.26642628205128205 17.71306818181818  0.7992788461538461 17.173295454545457  C 1.3321314102564104 16.633522727272727  1.963141025641026 16.363636363636363  2.6923076923076925 16  L 13.461538461538462 16  C 14.19070512820513 16.363636363636363  14.821714743589745 16.633522727272727  15.354567307692308 17.173295454545457  Z M 15.354567307692308 0.8096590909090906  C 15.88741987179487 1.3494318181818166  16.153846153846153 1.9886363636363635  16.153846153846153 2.7272727272727284  L 16.153846153846153 10.90909090909091  C 16.153846153846153 11.64772727272727  15.88741987179487 12.286931818181818  15.354567307692308 12.826704545454547  C 14.821714743589745 13.366477272727273  14.19070512820513 13.636363636363637  13.461538461538462 14  L 2.6923076923076925 14  C 1.963141025641026 13.636363636363637  1.3321314102564104 13.366477272727273  0.7992788461538461 12.826704545454547  C 0.26642628205128205 12.286931818181818  0 11.64772727272727  0 10.90909090909091  L 0 2.7272727272727284  C 0 1.9886363636363635  0.26642628205128205 1.3494318181818166  0.7992788461538461 0.8096590909090906  C 1.3321314102564104 0.2698863636363613  1.963141025641026 0  2.6923076923076925 0  L 13.461538461538462 0  C 14.19070512820513 0  14.821714743589745 0.2698863636363613  15.354567307692308 0.8096590909090906  Z M 34.20072115384615 17.173295454545457  C 34.73357371794872 17.71306818181818  35 18.352272727272727  35 19.09090909090909  L 35 27.272727272727273  C 35 28.01136363636364  34.73357371794872 28.650568181818183  34.20072115384615 29.19034090909091  C 33.66786858974359 29.730113636363637  33.03685897435898 30  32.30769230769231 30  L 21.53846153846154 30  C 20.809294871794876 30  20.17828525641026 29.730113636363637  19.64543269230769 29.19034090909091  C 19.112580128205128 28.650568181818183  18.846153846153847 28.01136363636364  18.846153846153847 27.272727272727273  L 18.846153846153847 19.09090909090909  C 18.846153846153847 18.352272727272727  19.112580128205128 17.71306818181818  19.64543269230769 17.173295454545457  C 20.17828525641026 16.633522727272727  20.809294871794876 16.363636363636363  21.53846153846154 16  L 32.30769230769231 16  C 33.03685897435898 16.363636363636363  33.66786858974359 16.633522727272727  34.20072115384615 17.173295454545457  Z M 34.20072115384615 0.8096590909090906  C 34.73357371794872 1.3494318181818166  35 1.9886363636363635  35 2.7272727272727284  L 35 10.90909090909091  C 35 11.64772727272727  34.73357371794872 12.286931818181818  34.20072115384615 12.826704545454547  C 33.66786858974359 13.366477272727273  33.03685897435898 13.636363636363637  32.30769230769231 14  L 21.53846153846154 14  C 20.809294871794876 13.636363636363637  20.17828525641026 13.366477272727273  19.64543269230769 12.826704545454547  C 19.112580128205128 12.286931818181818  18.846153846153847 11.64772727272727  18.846153846153847 10.90909090909091  L 18.846153846153847 2.7272727272727284  C 18.846153846153847 1.9886363636363635  19.112580128205128 1.3494318181818166  19.64543269230769 0.8096590909090906  C 20.17828525641026 0.2698863636363613  20.809294871794876 0  21.53846153846154 0  L 32.30769230769231 0  C 33.03685897435898 0  33.66786858974359 0.2698863636363613  34.20072115384615 0.8096590909090906  Z " fill-rule="nonzero" fill="#5386ab" stroke="none" transform="matrix(1 0 0 1 30 20 )" />
  </g>
</svg>