<?xml version="1.0" encoding="utf-8"?>
<svg version="1.1" xmlns:xlink="http://www.w3.org/1999/xlink" width="21px" height="18px" xmlns="http://www.w3.org/2000/svg">
  <g transform="matrix(1 0 0 1 -20 -22 )">
    <path d="M 9.212740384615385 10.303977272727273  C 9.532451923076922 10.627840909090907  9.692307692307693 11.011363636363635  9.692307692307693 11.454545454545455  L 9.692307692307693 16.363636363636363  C 9.692307692307693 16.806818181818183  9.532451923076922 17.19034090909091  9.212740384615385 17.514204545454547  C 8.893028846153847 17.83806818181818  8.514423076923078 18  8.076923076923077 18  L 1.6153846153846154 18  C 1.1778846153846156 18  0.7992788461538463 17.83806818181818  0.47956730769230765 17.514204545454547  C 0.15985576923076922 17.19034090909091  0 16.806818181818183  0 16.363636363636363  L 0 11.454545454545455  C 0 11.011363636363635  0.15985576923076922 10.627840909090907  0.47956730769230765 10.303977272727273  C 0.7992788461538463 9.980113636363637  1.1778846153846156 9.818181818181817  1.6153846153846154 9.818181818181817  L 8.076923076923077 9.818181818181817  C 8.514423076923078 9.818181818181817  8.893028846153847 9.980113636363637  9.212740384615385 10.303977272727273  Z M 9.212740384615385 0.48579545454545436  C 9.532451923076922 0.8096590909090899  9.692307692307693 1.1931818181818181  9.692307692307693 1.636363636363637  L 9.692307692307693 6.545454545454546  C 9.692307692307693 6.988636363636362  9.532451923076922 7.372159090909091  9.212740384615385 7.696022727272728  C 8.893028846153847 8.019886363636363  8.514423076923078 8.181818181818183  8.076923076923077 8.181818181818183  L 1.6153846153846154 8.181818181818183  C 1.1778846153846156 8.181818181818183  0.7992788461538463 8.019886363636363  0.47956730769230765 7.696022727272728  C 0.15985576923076922 7.372159090909091  0 6.988636363636362  0 6.545454545454546  L 0 1.636363636363637  C 0 1.1931818181818181  0.15985576923076922 0.8096590909090899  0.47956730769230765 0.48579545454545436  C 0.7992788461538463 0.1619318181818168  1.1778846153846156 0  1.6153846153846154 0  L 8.076923076923077 0  C 8.514423076923078 0  8.893028846153847 0.1619318181818168  9.212740384615385 0.48579545454545436  Z M 20.520432692307693 10.303977272727273  C 20.840144230769234 10.627840909090907  21 11.011363636363635  21 11.454545454545455  L 21 16.363636363636363  C 21 16.806818181818183  20.840144230769234 17.19034090909091  20.520432692307693 17.514204545454547  C 20.200721153846157 17.83806818181818  19.822115384615387 18  19.384615384615387 18  L 12.923076923076923 18  C 12.485576923076925 18  12.106971153846157 17.83806818181818  11.787259615384615 17.514204545454547  C 11.467548076923077 17.19034090909091  11.307692307692307 16.806818181818183  11.307692307692307 16.363636363636363  L 11.307692307692307 11.454545454545455  C 11.307692307692307 11.011363636363635  11.467548076923077 10.627840909090907  11.787259615384615 10.303977272727273  C 12.106971153846157 9.980113636363637  12.485576923076925 9.818181818181817  12.923076923076923 9.818181818181817  L 19.384615384615387 9.818181818181817  C 19.822115384615387 9.818181818181817  20.200721153846157 9.980113636363637  20.520432692307693 10.303977272727273  Z M 20.520432692307693 0.48579545454545436  C 20.840144230769234 0.8096590909090899  21 1.1931818181818181  21 1.636363636363637  L 21 6.545454545454546  C 21 6.988636363636362  20.840144230769234 7.372159090909091  20.520432692307693 7.696022727272728  C 20.200721153846157 8.019886363636363  19.822115384615387 8.181818181818183  19.384615384615387 8.181818181818183  L 12.923076923076923 8.181818181818183  C 12.485576923076925 8.181818181818183  12.106971153846157 8.019886363636363  11.787259615384615 7.696022727272728  C 11.467548076923077 7.372159090909091  11.307692307692307 6.988636363636362  11.307692307692307 6.545454545454546  L 11.307692307692307 1.636363636363637  C 11.307692307692307 1.1931818181818181  11.467548076923077 0.8096590909090899  11.787259615384615 0.48579545454545436  C 12.106971153846157 0.1619318181818168  12.485576923076925 0  12.923076923076923 0  L 19.384615384615387 0  C 19.822115384615387 0  20.200721153846157 0.1619318181818168  20.520432692307693 0.48579545454545436  Z " fill-rule="nonzero" fill="#5386ab" stroke="none" transform="matrix(1 0 0 1 20 22 )" />
  </g>
</svg>